<?xml version="1.0" encoding="utf-8"?>
<!-- Generator: Adobe Illustrator 16.0.0, SVG Export Plug-In . SVG Version: 6.00 Build 0)  -->
<!DOCTYPE svg PUBLIC "-//W3C//DTD SVG 1.1//EN" "http://www.w3.org/Graphics/SVG/1.1/DTD/svg11.dtd">
<svg version="1.1" id="Calque_1" xmlns="http://www.w3.org/2000/svg" xmlns:xlink="http://www.w3.org/1999/xlink" x="0px" y="0px"
	 width="512px" height="512px" viewBox="0 0 512 512" enable-background="new 0 0 512 512" xml:space="preserve">
<path fill="#377247" d="M457.66,251.94c0,0,0,0-0.01,0c-0.21-0.16-0.44-0.29-0.681-0.41c-0.05-0.02-0.09-0.04-0.13-0.06
	c-0.109-0.05-0.22-0.11-0.33-0.16L59.29,74.69c-1.81-0.81-3.94-0.46-5.4,0.88c-1.47,1.34-2,3.42-1.36,5.3l51,149.68
	c0.64,1.89,2.35,3.22,4.34,3.37L390.54,256l-282.67,22.08c-1.99,0.16-3.7,1.479-4.34,3.37l-51,149.68c-0.64,1.88-0.11,3.96,1.36,5.3
	c0.94,0.86,2.15,1.311,3.37,1.311c0.69,0,1.38-0.141,2.03-0.431L456.66,260.62c1.12-0.46,2.03-1.33,2.57-2.42
	c0-0.01,0.01-0.01,0.01-0.021c0.12-0.239,0.21-0.489,0.29-0.739c0-0.03,0.01-0.061,0.02-0.091c0.07-0.239,0.12-0.489,0.15-0.75
	c0.01-0.05,0.01-0.1,0.01-0.14c0.021-0.16,0.05-0.3,0.05-0.46C459.76,254.32,458.929,252.84,457.66,251.94z M65.68,423.531
	l46.25-135.74l314.2-24.54L65.68,423.531z M111.93,224.21L65.68,88.48l360.45,160.27L111.93,224.21z"/>
<polygon fill="#7AD98E" points="426.13,248.75 111.93,224.21 65.68,88.48 "/>
<polygon fill="#7AD98E" points="426.13,263.25 65.68,423.531 111.93,287.79 "/>
</svg>
